<?xml version="1.0" encoding="utf-8"?>
<!-- Generator: Adobe Illustrator 27.5.0, SVG Export Plug-In . SVG Version: 6.00 Build 0)  -->
<svg version="1.1" xmlns="http://www.w3.org/2000/svg" xmlns:xlink="http://www.w3.org/1999/xlink" x="0px" y="0px"
	 viewBox="0 0 600 300" style="enable-background:new 0 0 600 600;" xml:space="preserve">
<g id="objects">
	<g>
		<path style="fill:#4FC646;" d="M135.866,174.895c-14.793,6.357-25.141,14.735-30.451,19.678c-2.421,2.253-6.165,2.255-8.588,0.004
			l0,0c-2.549-2.367-2.704-6.348-0.342-8.902c16.686-18.039,49.381-52.643,129.512-56.5c96.565-4.647,118.192,67.096,204.192,50.096
			c0,0-41.978,3.339-122.456-52.863c-63.7-44.485-137.194-9.567-138.534-9.147c0.6-0.91,39.59-58.99,115.99-58.99
			c85,0,122,109,220,96c0,0-62,111-170,111c-71.288,0-111.748-48.898-147.552-81.646
			C173.614,170.797,153.327,167.39,135.866,174.895z"/>
		</g>
</g>
</svg>
